<svg width="19" height="18" viewBox="0 0 19 18" fill="none" xmlns="http://www.w3.org/2000/svg">
<path d="M17.5002 16.5149L15.8251 14.9384M8.70633 15.7266C9.75116 15.7266 10.7858 15.5329 11.7511 15.1566C12.7164 14.7803 13.5935 14.2287 14.3323 13.5333C15.0711 12.838 15.6572 12.0125 16.057 11.104C16.4569 10.1954 16.6627 9.22168 16.6627 8.23831C16.6627 7.25493 16.4569 6.28118 16.057 5.37265C15.6572 4.46413 15.0711 3.63863 14.3323 2.94327C13.5935 2.24792 12.7164 1.69634 11.7511 1.32001C10.7858 0.943691 9.75116 0.75 8.70633 0.75C6.59618 0.75 4.57245 1.53894 3.08035 2.94327C1.58825 4.3476 0.75 6.25228 0.75 8.23831C0.75 10.2243 1.58825 12.129 3.08035 13.5333C4.57245 14.9377 6.59618 15.7266 8.70633 15.7266V15.7266Z" stroke="#707070" stroke-width="1.5" stroke-linecap="round" stroke-linejoin="round"/>
</svg>
