<svg width="24" height="24" viewBox="0 0 24 24" fill="none" xmlns="http://www.w3.org/2000/svg">
<path d="M12 20.9619C9.99067 20.3652 8.32167 19.1482 6.993 17.3109C5.66433 15.4736 5 13.4032 5 11.0999V5.6919L12 3.0769L19 5.6919V11.0999C19 13.4026 18.3357 15.4726 17.007 17.3099C15.6783 19.1472 14.0093 20.3639 12 20.9619ZM12 19.9009C13.7333 19.3509 15.1667 18.2509 16.3 16.6009C17.4333 14.9509 18 13.1176 18 11.1009V6.3749L12 4.1449L6 6.3749V11.0999C6 13.1166 6.56667 14.9499 7.7 16.5999C8.83333 18.2499 10.2667 19.3509 12 19.9009Z" fill="#0036AE"/>
</svg>
